<?xml version="1.0" encoding="UTF-8"?>
<!-- Generated by Pixelmator Pro 3.7 -->
<svg width="1024" height="1024" viewBox="0 0 1024 1024" xmlns="http://www.w3.org/2000/svg">
    <g id="Group">
        <g id="g1">
            <path id="Rounded-Rectangle" fill="#ffffff" fill-rule="evenodd" stroke="none" d="M 356 512 C 356 598.156433 425.843567 668 512 668 C 598.156433 668 668 598.156433 668 512 C 668 425.843567 598.156433 356 512 356 C 425.843567 356 356 425.843567 356 512 Z"/>
            <g id="g2">
                <path id="Pill" fill="#000000" fill-rule="evenodd" stroke="none" d="M 533.08905 554.792603 C 533.08905 566.37085 523.687073 575.756836 512.08905 575.756836 C 500.491089 575.756836 491.08905 566.37085 491.08905 554.792603 L 491.08905 512.208923 C 491.08905 500.630676 500.491089 491.244629 512.08905 491.244629 C 523.687073 491.244629 533.08905 500.630676 533.08905 512.208923 L 533.08905 554.792603 Z"/>
                <path id="Circle" fill="#000000" fill-rule="evenodd" stroke="none" d="M 553.53125 491.078125 C 553.53125 467.882141 534.727234 449.078125 511.53125 449.078125 C 488.335297 449.078125 469.53125 467.882141 469.53125 491.078125 C 469.53125 514.274048 488.335297 533.078125 511.53125 533.078125 C 534.727234 533.078125 553.53125 514.274048 553.53125 491.078125 Z"/>
            </g>
        </g>
    </g>
</svg>
